<?xml version="1.0" encoding="UTF-8" standalone="no"?>
<!DOCTYPE svg PUBLIC "-//W3C//DTD SVG 1.1//EN" "http://www.w3.org/Graphics/SVG/1.1/DTD/svg11.dtd">
<svg version="1.1" xmlns="http://www.w3.org/2000/svg" xmlns:xlink="http://www.w3.org/1999/xlink" preserveAspectRatio="xMidYMid meet" viewBox="230.38884889274675 184.0925631235736 122.49999158522724 138.9074368764264" width="112.5" height="134.91"><defs><path d="M315.76 247.6L343.89 310.1L287.64 310.1L231.39 310.1L259.51 247.6L287.64 185.09L315.76 247.6Z" id="a5oNpUimsO"></path><path d="M312.81 260.42L337.99 320L287.64 320L237.29 320L262.46 260.42L287.64 200.85L312.81 260.42Z" id="erLs4pLCV"></path></defs><g><g><g><filter id="shadow5623453" x="213.39" y="167.09" width="152.5" height="165.01" filterUnits="userSpaceOnUse" primitiveUnits="userSpaceOnUse"><feFlood></feFlood><feComposite in2="SourceAlpha" operator="in"></feComposite><feGaussianBlur stdDeviation="2"></feGaussianBlur><feOffset dx="4" dy="4" result="afterOffset"></feOffset><feFlood flood-color="#000000" flood-opacity="0.56"></feFlood><feComposite in2="afterOffset" operator="in"></feComposite><feMorphology operator="dilate" radius="1"></feMorphology><feComposite in2="SourceAlpha" operator="out"></feComposite></filter><path d="M315.76 247.6L343.89 310.1L287.64 310.1L231.39 310.1L259.51 247.6L287.64 185.09L315.76 247.6Z" id="b6DZ8lEqf" fill="white" fill-opacity="1" filter="url(#shadow5623453)"></path></g><use xlink:href="#a5oNpUimsO" opacity="1" fill="#040404" fill-opacity="0.56"></use></g><g><g><filter id="shadow9606147" x="228.29" y="191.85" width="119.69" height="138.15" filterUnits="userSpaceOnUse" primitiveUnits="userSpaceOnUse"><feFlood></feFlood><feComposite in2="SourceAlpha" operator="in"></feComposite><feGaussianBlur stdDeviation="1"></feGaussianBlur><feOffset dx="1" dy="1" result="afterOffset"></feOffset><feFlood flood-color="#000000" flood-opacity="0.56"></feFlood><feComposite in2="afterOffset" operator="in"></feComposite><feMorphology operator="dilate" radius="1"></feMorphology><feComposite in2="SourceAlpha" operator="out"></feComposite></filter><path d="M312.81 260.42L337.99 320L287.64 320L237.29 320L262.46 260.42L287.64 200.85L312.81 260.42Z" id="d8Va8W8QZe" fill="white" fill-opacity="1" filter="url(#shadow9606147)"></path></g><use xlink:href="#erLs4pLCV" opacity="1" fill="#070807" fill-opacity="0.63"></use></g></g></svg>